<mxfile host="65bd71144e">
    <diagram name="Page-1" id="52a04d89-c75d-2922-d76d-85b35f80e030">
        <mxGraphModel dx="1261" dy="678" grid="1" gridSize="10" guides="1" tooltips="1" connect="1" arrows="1" fold="1" page="1" pageScale="1" pageWidth="1100" pageHeight="850" background="none" math="0" shadow="0">
            <root>
                <mxCell id="0"/>
                <mxCell id="1" parent="0"/>
                <mxCell id="BbwhjEKNeiXTBi5WMxnw-6" style="edgeStyle=orthogonalEdgeStyle;rounded=0;orthogonalLoop=1;jettySize=auto;html=1;entryX=0;entryY=0.5;entryDx=0;entryDy=0;" parent="1" source="BbwhjEKNeiXTBi5WMxnw-1" target="BbwhjEKNeiXTBi5WMxnw-4" edge="1">
                    <mxGeometry relative="1" as="geometry"/>
                </mxCell>
                <mxCell id="BbwhjEKNeiXTBi5WMxnw-7" style="edgeStyle=orthogonalEdgeStyle;rounded=0;orthogonalLoop=1;jettySize=auto;html=1;entryX=0;entryY=0.5;entryDx=0;entryDy=0;" parent="1" source="BbwhjEKNeiXTBi5WMxnw-1" target="BbwhjEKNeiXTBi5WMxnw-5" edge="1">
                    <mxGeometry relative="1" as="geometry">
                        <Array as="points">
                            <mxPoint x="170" y="60"/>
                            <mxPoint x="170" y="140"/>
                        </Array>
                    </mxGeometry>
                </mxCell>
                <mxCell id="BbwhjEKNeiXTBi5WMxnw-1" value="&lt;font style=&quot;font-size: 10px;&quot;&gt;Halaman Pengunjung&lt;/font&gt;" style="whiteSpace=wrap;html=1;rounded=0;shadow=0;comic=0;labelBackgroundColor=none;strokeWidth=1;fontFamily=Verdana;fontSize=12;align=center;" parent="1" vertex="1">
                    <mxGeometry x="40" y="40" width="120" height="40" as="geometry"/>
                </mxCell>
                <mxCell id="BbwhjEKNeiXTBi5WMxnw-10" style="edgeStyle=orthogonalEdgeStyle;rounded=0;orthogonalLoop=1;jettySize=auto;html=1;entryX=0;entryY=0.5;entryDx=0;entryDy=0;" parent="1" source="BbwhjEKNeiXTBi5WMxnw-4" target="BbwhjEKNeiXTBi5WMxnw-8" edge="1">
                    <mxGeometry relative="1" as="geometry">
                        <Array as="points">
                            <mxPoint x="340" y="60"/>
                            <mxPoint x="340" y="60"/>
                        </Array>
                    </mxGeometry>
                </mxCell>
                <mxCell id="BbwhjEKNeiXTBi5WMxnw-27" value="Input" style="edgeLabel;html=1;align=center;verticalAlign=middle;resizable=0;points=[];fontSize=10;" parent="BbwhjEKNeiXTBi5WMxnw-10" vertex="1" connectable="0">
                    <mxGeometry x="-0.3575" y="1" relative="1" as="geometry">
                        <mxPoint x="3" as="offset"/>
                    </mxGeometry>
                </mxCell>
                <mxCell id="BbwhjEKNeiXTBi5WMxnw-4" value="&lt;font style=&quot;font-size: 10px;&quot;&gt;Halaman Login Siswa&lt;/font&gt;" style="whiteSpace=wrap;html=1;rounded=0;shadow=0;comic=0;labelBackgroundColor=none;strokeWidth=1;fontFamily=Verdana;fontSize=12;align=center;" parent="1" vertex="1">
                    <mxGeometry x="200" y="40" width="120" height="40" as="geometry"/>
                </mxCell>
                <mxCell id="BbwhjEKNeiXTBi5WMxnw-14" style="edgeStyle=orthogonalEdgeStyle;rounded=0;orthogonalLoop=1;jettySize=auto;html=1;entryX=0;entryY=0.5;entryDx=0;entryDy=0;fontSize=10;" parent="1" source="BbwhjEKNeiXTBi5WMxnw-5" target="BbwhjEKNeiXTBi5WMxnw-13" edge="1">
                    <mxGeometry relative="1" as="geometry"/>
                </mxCell>
                <mxCell id="BbwhjEKNeiXTBi5WMxnw-28" value="Input" style="edgeLabel;html=1;align=center;verticalAlign=middle;resizable=0;points=[];fontSize=10;" parent="BbwhjEKNeiXTBi5WMxnw-14" vertex="1" connectable="0">
                    <mxGeometry x="-0.3081" y="-1" relative="1" as="geometry">
                        <mxPoint x="2" y="-2" as="offset"/>
                    </mxGeometry>
                </mxCell>
                <mxCell id="BbwhjEKNeiXTBi5WMxnw-5" value="&lt;font style=&quot;font-size: 10px;&quot;&gt;Halaman Login Petugas&lt;/font&gt;" style="whiteSpace=wrap;html=1;rounded=0;shadow=0;comic=0;labelBackgroundColor=none;strokeWidth=1;fontFamily=Verdana;fontSize=12;align=center;" parent="1" vertex="1">
                    <mxGeometry x="200" y="120" width="120" height="40" as="geometry"/>
                </mxCell>
                <mxCell id="BbwhjEKNeiXTBi5WMxnw-11" style="edgeStyle=orthogonalEdgeStyle;rounded=0;orthogonalLoop=1;jettySize=auto;html=1;entryX=0.5;entryY=0;entryDx=0;entryDy=0;" parent="1" source="BbwhjEKNeiXTBi5WMxnw-8" target="BbwhjEKNeiXTBi5WMxnw-4" edge="1">
                    <mxGeometry relative="1" as="geometry">
                        <Array as="points">
                            <mxPoint x="420" y="30"/>
                            <mxPoint x="260" y="30"/>
                        </Array>
                    </mxGeometry>
                </mxCell>
                <mxCell id="BbwhjEKNeiXTBi5WMxnw-26" value="False" style="edgeLabel;html=1;align=center;verticalAlign=middle;resizable=0;points=[];fontSize=10;" parent="BbwhjEKNeiXTBi5WMxnw-11" vertex="1" connectable="0">
                    <mxGeometry x="-0.8396" relative="1" as="geometry">
                        <mxPoint x="-76" as="offset"/>
                    </mxGeometry>
                </mxCell>
                <mxCell id="BbwhjEKNeiXTBi5WMxnw-17" style="edgeStyle=orthogonalEdgeStyle;rounded=0;orthogonalLoop=1;jettySize=auto;html=1;entryX=0;entryY=0.5;entryDx=0;entryDy=0;fontSize=10;" parent="1" source="BbwhjEKNeiXTBi5WMxnw-8" target="BbwhjEKNeiXTBi5WMxnw-16" edge="1">
                    <mxGeometry relative="1" as="geometry"/>
                </mxCell>
                <mxCell id="BbwhjEKNeiXTBi5WMxnw-23" value="True" style="edgeLabel;html=1;align=center;verticalAlign=middle;resizable=0;points=[];fontSize=10;" parent="BbwhjEKNeiXTBi5WMxnw-17" vertex="1" connectable="0">
                    <mxGeometry x="-0.1962" relative="1" as="geometry">
                        <mxPoint x="-1" as="offset"/>
                    </mxGeometry>
                </mxCell>
                <mxCell id="BbwhjEKNeiXTBi5WMxnw-8" value="&lt;font style=&quot;font-size: 10px;&quot;&gt;Cek&lt;/font&gt;" style="ellipse;whiteSpace=wrap;html=1;rounded=1;shadow=0;comic=0;labelBackgroundColor=none;strokeWidth=1;fontFamily=Verdana;fontSize=12;align=center;" parent="1" vertex="1">
                    <mxGeometry x="360" y="40" width="120" height="40" as="geometry"/>
                </mxCell>
                <mxCell id="BbwhjEKNeiXTBi5WMxnw-15" style="edgeStyle=orthogonalEdgeStyle;rounded=0;orthogonalLoop=1;jettySize=auto;html=1;entryX=0.5;entryY=0;entryDx=0;entryDy=0;fontSize=10;" parent="1" source="BbwhjEKNeiXTBi5WMxnw-13" target="BbwhjEKNeiXTBi5WMxnw-5" edge="1">
                    <mxGeometry relative="1" as="geometry">
                        <Array as="points">
                            <mxPoint x="420" y="110"/>
                            <mxPoint x="260" y="110"/>
                        </Array>
                    </mxGeometry>
                </mxCell>
                <mxCell id="BbwhjEKNeiXTBi5WMxnw-29" value="False" style="edgeLabel;html=1;align=center;verticalAlign=middle;resizable=0;points=[];fontSize=10;" parent="BbwhjEKNeiXTBi5WMxnw-15" vertex="1" connectable="0">
                    <mxGeometry x="-0.8305" relative="1" as="geometry">
                        <mxPoint x="-75" as="offset"/>
                    </mxGeometry>
                </mxCell>
                <mxCell id="BbwhjEKNeiXTBi5WMxnw-43" style="edgeStyle=orthogonalEdgeStyle;rounded=0;orthogonalLoop=1;jettySize=auto;html=1;entryX=0;entryY=0.5;entryDx=0;entryDy=0;fontSize=10;" parent="1" source="BbwhjEKNeiXTBi5WMxnw-13" target="BbwhjEKNeiXTBi5WMxnw-42" edge="1">
                    <mxGeometry relative="1" as="geometry"/>
                </mxCell>
                <mxCell id="BbwhjEKNeiXTBi5WMxnw-44" value="True" style="edgeLabel;html=1;align=center;verticalAlign=middle;resizable=0;points=[];fontSize=10;" parent="BbwhjEKNeiXTBi5WMxnw-43" vertex="1" connectable="0">
                    <mxGeometry x="-0.3309" relative="1" as="geometry">
                        <mxPoint x="2" y="-1" as="offset"/>
                    </mxGeometry>
                </mxCell>
                <mxCell id="BbwhjEKNeiXTBi5WMxnw-13" value="&lt;font style=&quot;font-size: 10px;&quot;&gt;Cek&lt;/font&gt;" style="ellipse;whiteSpace=wrap;html=1;rounded=1;shadow=0;comic=0;labelBackgroundColor=none;strokeWidth=1;fontFamily=Verdana;fontSize=12;align=center;" parent="1" vertex="1">
                    <mxGeometry x="360" y="120" width="120" height="40" as="geometry"/>
                </mxCell>
                <mxCell id="BbwhjEKNeiXTBi5WMxnw-20" style="edgeStyle=orthogonalEdgeStyle;rounded=0;orthogonalLoop=1;jettySize=auto;html=1;entryX=0;entryY=0.5;entryDx=0;entryDy=0;fontSize=10;" parent="1" source="BbwhjEKNeiXTBi5WMxnw-16" target="BbwhjEKNeiXTBi5WMxnw-18" edge="1">
                    <mxGeometry relative="1" as="geometry"/>
                </mxCell>
                <mxCell id="BbwhjEKNeiXTBi5WMxnw-34" style="edgeStyle=orthogonalEdgeStyle;rounded=0;orthogonalLoop=1;jettySize=auto;html=1;entryX=0;entryY=0.5;entryDx=0;entryDy=0;fontSize=10;" parent="1" source="BbwhjEKNeiXTBi5WMxnw-16" target="BbwhjEKNeiXTBi5WMxnw-32" edge="1">
                    <mxGeometry relative="1" as="geometry">
                        <Array as="points">
                            <mxPoint x="660" y="60"/>
                            <mxPoint x="660" y="140"/>
                        </Array>
                    </mxGeometry>
                </mxCell>
                <mxCell id="BbwhjEKNeiXTBi5WMxnw-36" style="edgeStyle=orthogonalEdgeStyle;rounded=0;orthogonalLoop=1;jettySize=auto;html=1;fontSize=10;entryX=0;entryY=0.5;entryDx=0;entryDy=0;" parent="1" source="BbwhjEKNeiXTBi5WMxnw-16" target="BbwhjEKNeiXTBi5WMxnw-37" edge="1">
                    <mxGeometry relative="1" as="geometry">
                        <mxPoint x="580" y="230" as="targetPoint"/>
                        <Array as="points">
                            <mxPoint x="660" y="60"/>
                            <mxPoint x="660" y="221"/>
                        </Array>
                    </mxGeometry>
                </mxCell>
                <mxCell id="BbwhjEKNeiXTBi5WMxnw-16" value="&lt;font style=&quot;font-size: 10px;&quot;&gt;Halaman Utama&lt;/font&gt;" style="whiteSpace=wrap;html=1;rounded=0;shadow=0;comic=0;labelBackgroundColor=none;strokeWidth=1;fontFamily=Verdana;fontSize=12;align=center;" parent="1" vertex="1">
                    <mxGeometry x="520" y="40" width="120" height="40" as="geometry"/>
                </mxCell>
                <mxCell id="BbwhjEKNeiXTBi5WMxnw-89" style="edgeStyle=orthogonalEdgeStyle;rounded=0;orthogonalLoop=1;jettySize=auto;html=1;entryX=0;entryY=0.5;entryDx=0;entryDy=0;fontSize=10;" parent="1" source="BbwhjEKNeiXTBi5WMxnw-18" target="BbwhjEKNeiXTBi5WMxnw-88" edge="1">
                    <mxGeometry relative="1" as="geometry"/>
                </mxCell>
                <mxCell id="BbwhjEKNeiXTBi5WMxnw-18" value="&lt;font style=&quot;font-size: 10px;&quot;&gt;Halaman Riwayat SPP&lt;/font&gt;" style="whiteSpace=wrap;html=1;rounded=0;shadow=0;comic=0;labelBackgroundColor=none;strokeWidth=1;fontFamily=Verdana;fontSize=12;align=center;" parent="1" vertex="1">
                    <mxGeometry x="680" y="40" width="120" height="40" as="geometry"/>
                </mxCell>
                <mxCell id="BbwhjEKNeiXTBi5WMxnw-32" value="&lt;font style=&quot;font-size: 10px;&quot;&gt;Halaman Data Pribadi&lt;/font&gt;" style="whiteSpace=wrap;html=1;rounded=0;shadow=0;comic=0;labelBackgroundColor=none;strokeWidth=1;fontFamily=Verdana;fontSize=12;align=center;" parent="1" vertex="1">
                    <mxGeometry x="680" y="120" width="120" height="40" as="geometry"/>
                </mxCell>
                <mxCell id="BbwhjEKNeiXTBi5WMxnw-40" style="edgeStyle=orthogonalEdgeStyle;rounded=0;orthogonalLoop=1;jettySize=auto;html=1;entryX=0.5;entryY=0;entryDx=0;entryDy=0;fontSize=10;" parent="1" source="BbwhjEKNeiXTBi5WMxnw-37" target="BbwhjEKNeiXTBi5WMxnw-1" edge="1">
                    <mxGeometry relative="1" as="geometry">
                        <Array as="points">
                            <mxPoint x="970" y="221"/>
                            <mxPoint x="970" y="20"/>
                            <mxPoint x="100" y="20"/>
                        </Array>
                    </mxGeometry>
                </mxCell>
                <mxCell id="BbwhjEKNeiXTBi5WMxnw-37" value="&lt;font style=&quot;font-size: 10px;&quot;&gt;Logout&lt;/font&gt;" style="ellipse;whiteSpace=wrap;html=1;rounded=1;shadow=0;comic=0;labelBackgroundColor=none;strokeWidth=1;fontFamily=Verdana;fontSize=12;align=center;" parent="1" vertex="1">
                    <mxGeometry x="680" y="201" width="120" height="40" as="geometry"/>
                </mxCell>
                <mxCell id="BbwhjEKNeiXTBi5WMxnw-51" style="edgeStyle=orthogonalEdgeStyle;rounded=0;orthogonalLoop=1;jettySize=auto;html=1;entryX=0.5;entryY=0;entryDx=0;entryDy=0;fontSize=10;" parent="1" source="BbwhjEKNeiXTBi5WMxnw-42" target="BbwhjEKNeiXTBi5WMxnw-50" edge="1">
                    <mxGeometry relative="1" as="geometry">
                        <Array as="points">
                            <mxPoint x="580" y="170"/>
                            <mxPoint x="100" y="170"/>
                        </Array>
                    </mxGeometry>
                </mxCell>
                <mxCell id="BbwhjEKNeiXTBi5WMxnw-62" style="edgeStyle=orthogonalEdgeStyle;rounded=0;orthogonalLoop=1;jettySize=auto;html=1;entryX=0.5;entryY=0;entryDx=0;entryDy=0;fontSize=10;exitX=0.5;exitY=1;exitDx=0;exitDy=0;" parent="1" source="BbwhjEKNeiXTBi5WMxnw-42" target="BbwhjEKNeiXTBi5WMxnw-61" edge="1">
                    <mxGeometry relative="1" as="geometry">
                        <Array as="points">
                            <mxPoint x="580" y="170"/>
                            <mxPoint x="260" y="170"/>
                        </Array>
                    </mxGeometry>
                </mxCell>
                <mxCell id="BbwhjEKNeiXTBi5WMxnw-42" value="&lt;font style=&quot;font-size: 10px;&quot;&gt;Halaman Utama&lt;/font&gt;" style="whiteSpace=wrap;html=1;rounded=0;shadow=0;comic=0;labelBackgroundColor=none;strokeWidth=1;fontFamily=Verdana;fontSize=12;align=center;" parent="1" vertex="1">
                    <mxGeometry x="520" y="120" width="120" height="40" as="geometry"/>
                </mxCell>
                <mxCell id="BbwhjEKNeiXTBi5WMxnw-58" style="edgeStyle=orthogonalEdgeStyle;rounded=0;orthogonalLoop=1;jettySize=auto;html=1;fontSize=10;" parent="1" source="BbwhjEKNeiXTBi5WMxnw-50" target="BbwhjEKNeiXTBi5WMxnw-53" edge="1">
                    <mxGeometry relative="1" as="geometry">
                        <Array as="points">
                            <mxPoint x="100" y="250"/>
                            <mxPoint x="10" y="250"/>
                            <mxPoint x="10" y="301"/>
                        </Array>
                    </mxGeometry>
                </mxCell>
                <mxCell id="BbwhjEKNeiXTBi5WMxnw-93" style="edgeStyle=orthogonalEdgeStyle;rounded=0;orthogonalLoop=1;jettySize=auto;html=1;entryX=1;entryY=0.5;entryDx=0;entryDy=0;fontSize=10;" parent="1" source="BbwhjEKNeiXTBi5WMxnw-50" target="BbwhjEKNeiXTBi5WMxnw-42" edge="1">
                    <mxGeometry relative="1" as="geometry">
                        <Array as="points">
                            <mxPoint x="170" y="221"/>
                            <mxPoint x="170" y="190"/>
                            <mxPoint x="650" y="190"/>
                            <mxPoint x="650" y="140"/>
                        </Array>
                    </mxGeometry>
                </mxCell>
                <mxCell id="BbwhjEKNeiXTBi5WMxnw-96" style="edgeStyle=orthogonalEdgeStyle;rounded=0;orthogonalLoop=1;jettySize=auto;html=1;entryX=0;entryY=0.5;entryDx=0;entryDy=0;fontSize=10;" parent="1" source="BbwhjEKNeiXTBi5WMxnw-50" target="BbwhjEKNeiXTBi5WMxnw-95" edge="1">
                    <mxGeometry relative="1" as="geometry">
                        <Array as="points">
                            <mxPoint x="100" y="250"/>
                            <mxPoint x="10" y="250"/>
                            <mxPoint x="10" y="542"/>
                        </Array>
                    </mxGeometry>
                </mxCell>
                <mxCell id="BbwhjEKNeiXTBi5WMxnw-100" style="edgeStyle=orthogonalEdgeStyle;rounded=0;orthogonalLoop=1;jettySize=auto;html=1;entryX=0;entryY=0.5;entryDx=0;entryDy=0;fontSize=10;" parent="1" source="BbwhjEKNeiXTBi5WMxnw-50" target="BbwhjEKNeiXTBi5WMxnw-99" edge="1">
                    <mxGeometry relative="1" as="geometry">
                        <Array as="points">
                            <mxPoint x="100" y="250"/>
                            <mxPoint x="10" y="250"/>
                            <mxPoint x="10" y="620"/>
                        </Array>
                    </mxGeometry>
                </mxCell>
                <mxCell id="BbwhjEKNeiXTBi5WMxnw-102" value="True" style="edgeLabel;html=1;align=center;verticalAlign=middle;resizable=0;points=[];fontSize=10;" parent="BbwhjEKNeiXTBi5WMxnw-100" vertex="1" connectable="0">
                    <mxGeometry x="-0.5573" relative="1" as="geometry">
                        <mxPoint y="-4" as="offset"/>
                    </mxGeometry>
                </mxCell>
                <mxCell id="BbwhjEKNeiXTBi5WMxnw-50" value="&lt;font style=&quot;font-size: 10px;&quot;&gt;Minimal Petugas&lt;/font&gt;" style="ellipse;whiteSpace=wrap;html=1;rounded=1;shadow=0;comic=0;labelBackgroundColor=none;strokeWidth=1;fontFamily=Verdana;fontSize=12;align=center;" parent="1" vertex="1">
                    <mxGeometry x="40" y="201" width="120" height="40" as="geometry"/>
                </mxCell>
                <mxCell id="BbwhjEKNeiXTBi5WMxnw-59" style="edgeStyle=orthogonalEdgeStyle;rounded=0;orthogonalLoop=1;jettySize=auto;html=1;entryX=0.5;entryY=0;entryDx=0;entryDy=0;fontSize=10;" parent="1" source="BbwhjEKNeiXTBi5WMxnw-53" target="BbwhjEKNeiXTBi5WMxnw-54" edge="1">
                    <mxGeometry relative="1" as="geometry"/>
                </mxCell>
                <mxCell id="BbwhjEKNeiXTBi5WMxnw-53" value="&lt;font style=&quot;font-size: 10px;&quot;&gt;Halaman Siswa&lt;br&gt;&lt;/font&gt;" style="whiteSpace=wrap;html=1;rounded=0;shadow=0;comic=0;labelBackgroundColor=none;strokeWidth=1;fontFamily=Verdana;fontSize=12;align=center;" parent="1" vertex="1">
                    <mxGeometry x="40" y="281" width="120" height="40" as="geometry"/>
                </mxCell>
                <mxCell id="BbwhjEKNeiXTBi5WMxnw-60" style="edgeStyle=orthogonalEdgeStyle;rounded=0;orthogonalLoop=1;jettySize=auto;html=1;fontSize=10;" parent="1" source="BbwhjEKNeiXTBi5WMxnw-54" target="BbwhjEKNeiXTBi5WMxnw-56" edge="1">
                    <mxGeometry relative="1" as="geometry"/>
                </mxCell>
                <mxCell id="BbwhjEKNeiXTBi5WMxnw-54" value="&lt;font style=&quot;font-size: 10px;&quot;&gt;Halaman SPP Siswa&lt;br&gt;&lt;/font&gt;" style="whiteSpace=wrap;html=1;rounded=0;shadow=0;comic=0;labelBackgroundColor=none;strokeWidth=1;fontFamily=Verdana;fontSize=12;align=center;" parent="1" vertex="1">
                    <mxGeometry x="40" y="360" width="120" height="40" as="geometry"/>
                </mxCell>
                <mxCell id="BbwhjEKNeiXTBi5WMxnw-56" value="&lt;font style=&quot;font-size: 10px;&quot;&gt;Halaman Pembayaran SPP Siswa&lt;/font&gt;" style="whiteSpace=wrap;html=1;rounded=0;shadow=0;comic=0;labelBackgroundColor=none;strokeWidth=1;fontFamily=Verdana;fontSize=12;align=center;" parent="1" vertex="1">
                    <mxGeometry x="40" y="440" width="120" height="40" as="geometry"/>
                </mxCell>
                <mxCell id="BbwhjEKNeiXTBi5WMxnw-73" style="edgeStyle=orthogonalEdgeStyle;rounded=0;orthogonalLoop=1;jettySize=auto;html=1;fontSize=10;" parent="1" source="BbwhjEKNeiXTBi5WMxnw-61" edge="1">
                    <mxGeometry relative="1" as="geometry">
                        <mxPoint x="200" y="380" as="targetPoint"/>
                        <Array as="points">
                            <mxPoint x="260" y="250"/>
                            <mxPoint x="170" y="250"/>
                            <mxPoint x="170" y="380"/>
                        </Array>
                    </mxGeometry>
                </mxCell>
                <mxCell id="BbwhjEKNeiXTBi5WMxnw-74" style="edgeStyle=orthogonalEdgeStyle;rounded=0;orthogonalLoop=1;jettySize=auto;html=1;entryX=0;entryY=0.5;entryDx=0;entryDy=0;fontSize=10;" parent="1" source="BbwhjEKNeiXTBi5WMxnw-61" target="BbwhjEKNeiXTBi5WMxnw-64" edge="1">
                    <mxGeometry relative="1" as="geometry">
                        <Array as="points">
                            <mxPoint x="260" y="250"/>
                            <mxPoint x="170" y="250"/>
                            <mxPoint x="170" y="301"/>
                        </Array>
                    </mxGeometry>
                </mxCell>
                <mxCell id="BbwhjEKNeiXTBi5WMxnw-75" style="edgeStyle=orthogonalEdgeStyle;rounded=0;orthogonalLoop=1;jettySize=auto;html=1;entryX=0;entryY=0.5;entryDx=0;entryDy=0;fontSize=10;" parent="1" source="BbwhjEKNeiXTBi5WMxnw-61" target="BbwhjEKNeiXTBi5WMxnw-66" edge="1">
                    <mxGeometry relative="1" as="geometry">
                        <Array as="points">
                            <mxPoint x="260" y="250"/>
                            <mxPoint x="170" y="250"/>
                            <mxPoint x="170" y="460"/>
                        </Array>
                    </mxGeometry>
                </mxCell>
                <mxCell id="BbwhjEKNeiXTBi5WMxnw-76" style="edgeStyle=orthogonalEdgeStyle;rounded=0;orthogonalLoop=1;jettySize=auto;html=1;entryX=0;entryY=0.5;entryDx=0;entryDy=0;fontSize=10;" parent="1" source="BbwhjEKNeiXTBi5WMxnw-61" target="BbwhjEKNeiXTBi5WMxnw-70" edge="1">
                    <mxGeometry relative="1" as="geometry">
                        <Array as="points">
                            <mxPoint x="260" y="250"/>
                            <mxPoint x="170" y="250"/>
                            <mxPoint x="170" y="542"/>
                        </Array>
                    </mxGeometry>
                </mxCell>
                <mxCell id="BbwhjEKNeiXTBi5WMxnw-78" style="edgeStyle=orthogonalEdgeStyle;rounded=0;orthogonalLoop=1;jettySize=auto;html=1;entryX=0;entryY=0.5;entryDx=0;entryDy=0;fontSize=10;" parent="1" source="BbwhjEKNeiXTBi5WMxnw-61" target="BbwhjEKNeiXTBi5WMxnw-69" edge="1">
                    <mxGeometry relative="1" as="geometry">
                        <Array as="points">
                            <mxPoint x="260" y="250"/>
                            <mxPoint x="170" y="250"/>
                            <mxPoint x="170" y="620"/>
                        </Array>
                    </mxGeometry>
                </mxCell>
                <mxCell id="BbwhjEKNeiXTBi5WMxnw-79" style="edgeStyle=orthogonalEdgeStyle;rounded=0;orthogonalLoop=1;jettySize=auto;html=1;entryX=0;entryY=0.5;entryDx=0;entryDy=0;fontSize=10;" parent="1" source="BbwhjEKNeiXTBi5WMxnw-61" target="BbwhjEKNeiXTBi5WMxnw-77" edge="1">
                    <mxGeometry relative="1" as="geometry">
                        <Array as="points">
                            <mxPoint x="260" y="250"/>
                            <mxPoint x="170" y="250"/>
                            <mxPoint x="170" y="700"/>
                        </Array>
                    </mxGeometry>
                </mxCell>
                <mxCell id="BbwhjEKNeiXTBi5WMxnw-81" value="True" style="edgeLabel;html=1;align=center;verticalAlign=middle;resizable=0;points=[];fontSize=10;" parent="BbwhjEKNeiXTBi5WMxnw-79" vertex="1" connectable="0">
                    <mxGeometry x="-0.6011" relative="1" as="geometry">
                        <mxPoint y="-9" as="offset"/>
                    </mxGeometry>
                </mxCell>
                <mxCell id="BbwhjEKNeiXTBi5WMxnw-94" style="edgeStyle=orthogonalEdgeStyle;rounded=0;orthogonalLoop=1;jettySize=auto;html=1;entryX=1;entryY=0.5;entryDx=0;entryDy=0;fontSize=10;" parent="1" source="BbwhjEKNeiXTBi5WMxnw-61" target="BbwhjEKNeiXTBi5WMxnw-42" edge="1">
                    <mxGeometry relative="1" as="geometry">
                        <Array as="points">
                            <mxPoint x="330" y="221"/>
                            <mxPoint x="330" y="190"/>
                            <mxPoint x="650" y="190"/>
                            <mxPoint x="650" y="140"/>
                        </Array>
                    </mxGeometry>
                </mxCell>
                <mxCell id="BbwhjEKNeiXTBi5WMxnw-61" value="&lt;font style=&quot;font-size: 10px;&quot;&gt;Minimal Admin&lt;/font&gt;" style="ellipse;whiteSpace=wrap;html=1;rounded=1;shadow=0;comic=0;labelBackgroundColor=none;strokeWidth=1;fontFamily=Verdana;fontSize=12;align=center;" parent="1" vertex="1">
                    <mxGeometry x="200" y="201" width="120" height="40" as="geometry"/>
                </mxCell>
                <mxCell id="BbwhjEKNeiXTBi5WMxnw-64" value="&lt;font style=&quot;font-size: 10px;&quot;&gt;Halaman Petugas&lt;br&gt;&lt;/font&gt;" style="whiteSpace=wrap;html=1;rounded=0;shadow=0;comic=0;labelBackgroundColor=none;strokeWidth=1;fontFamily=Verdana;fontSize=12;align=center;" parent="1" vertex="1">
                    <mxGeometry x="200" y="281" width="120" height="40" as="geometry"/>
                </mxCell>
                <mxCell id="BbwhjEKNeiXTBi5WMxnw-65" value="&lt;font style=&quot;font-size: 10px;&quot;&gt;Halaman Rombel&lt;br&gt;&lt;/font&gt;" style="whiteSpace=wrap;html=1;rounded=0;shadow=0;comic=0;labelBackgroundColor=none;strokeWidth=1;fontFamily=Verdana;fontSize=12;align=center;" parent="1" vertex="1">
                    <mxGeometry x="200" y="360" width="120" height="40" as="geometry"/>
                </mxCell>
                <mxCell id="BbwhjEKNeiXTBi5WMxnw-66" value="&lt;font style=&quot;font-size: 10px;&quot;&gt;Halaman Kompetensi Keahlian&lt;br&gt;&lt;/font&gt;" style="whiteSpace=wrap;html=1;rounded=0;shadow=0;comic=0;labelBackgroundColor=none;strokeWidth=1;fontFamily=Verdana;fontSize=12;align=center;" parent="1" vertex="1">
                    <mxGeometry x="200" y="440" width="120" height="40" as="geometry"/>
                </mxCell>
                <mxCell id="BbwhjEKNeiXTBi5WMxnw-69" value="&lt;font style=&quot;font-size: 10px;&quot;&gt;Halaman Tingkat&lt;br&gt;&lt;/font&gt;" style="whiteSpace=wrap;html=1;rounded=0;shadow=0;comic=0;labelBackgroundColor=none;strokeWidth=1;fontFamily=Verdana;fontSize=12;align=center;" parent="1" vertex="1">
                    <mxGeometry x="200" y="600" width="120" height="40" as="geometry"/>
                </mxCell>
                <mxCell id="BbwhjEKNeiXTBi5WMxnw-70" value="&lt;font style=&quot;font-size: 10px;&quot;&gt;Halaman Jurusan&lt;br&gt;&lt;/font&gt;" style="whiteSpace=wrap;html=1;rounded=0;shadow=0;comic=0;labelBackgroundColor=none;strokeWidth=1;fontFamily=Verdana;fontSize=12;align=center;" parent="1" vertex="1">
                    <mxGeometry x="200" y="522" width="120" height="40" as="geometry"/>
                </mxCell>
                <mxCell id="BbwhjEKNeiXTBi5WMxnw-77" value="&lt;font style=&quot;font-size: 10px;&quot;&gt;Halaman SPP&lt;br&gt;&lt;/font&gt;" style="whiteSpace=wrap;html=1;rounded=0;shadow=0;comic=0;labelBackgroundColor=none;strokeWidth=1;fontFamily=Verdana;fontSize=12;align=center;" parent="1" vertex="1">
                    <mxGeometry x="200" y="680" width="120" height="40" as="geometry"/>
                </mxCell>
                <mxCell id="BbwhjEKNeiXTBi5WMxnw-83" value="&lt;font style=&quot;font-size: 10px;&quot;&gt;Halaman Aktivitas Petugas&lt;br&gt;&lt;/font&gt;" style="whiteSpace=wrap;html=1;rounded=0;shadow=0;comic=0;labelBackgroundColor=none;strokeWidth=1;fontFamily=Verdana;fontSize=12;align=center;" parent="1" vertex="1">
                    <mxGeometry x="360" y="281" width="120" height="40" as="geometry"/>
                </mxCell>
                <mxCell id="BbwhjEKNeiXTBi5WMxnw-85" style="edgeStyle=orthogonalEdgeStyle;rounded=0;orthogonalLoop=1;jettySize=auto;html=1;fontSize=10;entryX=0;entryY=0.5;entryDx=0;entryDy=0;" parent="1" source="BbwhjEKNeiXTBi5WMxnw-84" target="BbwhjEKNeiXTBi5WMxnw-83" edge="1">
                    <mxGeometry relative="1" as="geometry">
                        <mxPoint x="350" y="280" as="targetPoint"/>
                        <Array as="points">
                            <mxPoint x="420" y="250"/>
                            <mxPoint x="330" y="250"/>
                            <mxPoint x="330" y="301"/>
                        </Array>
                    </mxGeometry>
                </mxCell>
                <mxCell id="BbwhjEKNeiXTBi5WMxnw-91" style="edgeStyle=orthogonalEdgeStyle;rounded=0;orthogonalLoop=1;jettySize=auto;html=1;entryX=1;entryY=0.5;entryDx=0;entryDy=0;fontSize=10;" parent="1" source="BbwhjEKNeiXTBi5WMxnw-84" target="BbwhjEKNeiXTBi5WMxnw-42" edge="1">
                    <mxGeometry relative="1" as="geometry">
                        <Array as="points">
                            <mxPoint x="490" y="221"/>
                            <mxPoint x="490" y="190"/>
                            <mxPoint x="650" y="190"/>
                            <mxPoint x="650" y="140"/>
                        </Array>
                    </mxGeometry>
                </mxCell>
                <mxCell id="BbwhjEKNeiXTBi5WMxnw-92" value="False" style="edgeLabel;html=1;align=center;verticalAlign=middle;resizable=0;points=[];fontSize=10;rotation=0;" parent="BbwhjEKNeiXTBi5WMxnw-91" vertex="1" connectable="0">
                    <mxGeometry x="0.61" y="1" relative="1" as="geometry">
                        <mxPoint x="-69" y="9" as="offset"/>
                    </mxGeometry>
                </mxCell>
                <mxCell id="BbwhjEKNeiXTBi5WMxnw-84" value="&lt;font style=&quot;font-size: 10px;&quot;&gt;Minimal Superadmin&lt;/font&gt;" style="ellipse;whiteSpace=wrap;html=1;rounded=1;shadow=0;comic=0;labelBackgroundColor=none;strokeWidth=1;fontFamily=Verdana;fontSize=12;align=center;" parent="1" vertex="1">
                    <mxGeometry x="360" y="201" width="120" height="40" as="geometry"/>
                </mxCell>
                <mxCell id="BbwhjEKNeiXTBi5WMxnw-88" value="&lt;font style=&quot;font-size: 10px;&quot;&gt;Halaman Riwayat Pembayaran SPP&lt;/font&gt;" style="whiteSpace=wrap;html=1;rounded=0;shadow=0;comic=0;labelBackgroundColor=none;strokeWidth=1;fontFamily=Verdana;fontSize=12;align=center;" parent="1" vertex="1">
                    <mxGeometry x="840" y="40" width="120" height="40" as="geometry"/>
                </mxCell>
                <mxCell id="BbwhjEKNeiXTBi5WMxnw-95" value="&lt;font style=&quot;font-size: 10px;&quot;&gt;Halaman Data Pribadi&lt;/font&gt;" style="whiteSpace=wrap;html=1;rounded=0;shadow=0;comic=0;labelBackgroundColor=none;strokeWidth=1;fontFamily=Verdana;fontSize=12;align=center;" parent="1" vertex="1">
                    <mxGeometry x="40" y="522" width="120" height="40" as="geometry"/>
                </mxCell>
                <mxCell id="BbwhjEKNeiXTBi5WMxnw-101" style="edgeStyle=orthogonalEdgeStyle;rounded=0;orthogonalLoop=1;jettySize=auto;html=1;entryX=0.5;entryY=0;entryDx=0;entryDy=0;fontSize=10;" parent="1" source="BbwhjEKNeiXTBi5WMxnw-99" target="BbwhjEKNeiXTBi5WMxnw-1" edge="1">
                    <mxGeometry relative="1" as="geometry">
                        <Array as="points">
                            <mxPoint x="100" y="730"/>
                            <mxPoint x="970" y="730"/>
                            <mxPoint x="970" y="20"/>
                            <mxPoint x="100" y="20"/>
                        </Array>
                    </mxGeometry>
                </mxCell>
                <mxCell id="BbwhjEKNeiXTBi5WMxnw-99" value="&lt;font style=&quot;font-size: 10px;&quot;&gt;Logout&lt;/font&gt;" style="ellipse;whiteSpace=wrap;html=1;rounded=1;shadow=0;comic=0;labelBackgroundColor=none;strokeWidth=1;fontFamily=Verdana;fontSize=12;align=center;" parent="1" vertex="1">
                    <mxGeometry x="40" y="600" width="120" height="40" as="geometry"/>
                </mxCell>
                <mxCell id="3" value="&lt;font style=&quot;font-size: 10px;&quot;&gt;Halaman Laporan&lt;br&gt;&lt;/font&gt;" style="whiteSpace=wrap;html=1;rounded=0;shadow=0;comic=0;labelBackgroundColor=none;strokeWidth=1;fontFamily=Verdana;fontSize=12;align=center;" vertex="1" parent="1">
                    <mxGeometry x="360" y="360" width="120" height="40" as="geometry"/>
                </mxCell>
                <mxCell id="7" style="edgeStyle=orthogonalEdgeStyle;rounded=0;orthogonalLoop=1;jettySize=auto;html=1;fontSize=10;entryX=0;entryY=0.5;entryDx=0;entryDy=0;exitX=0.5;exitY=1;exitDx=0;exitDy=0;" edge="1" parent="1" source="BbwhjEKNeiXTBi5WMxnw-84" target="3">
                    <mxGeometry relative="1" as="geometry">
                        <mxPoint x="430" y="251" as="sourcePoint"/>
                        <mxPoint x="370" y="311" as="targetPoint"/>
                        <Array as="points">
                            <mxPoint x="420" y="250"/>
                            <mxPoint x="330" y="250"/>
                            <mxPoint x="330" y="380"/>
                        </Array>
                    </mxGeometry>
                </mxCell>
                <mxCell id="10" value="True" style="edgeLabel;html=1;align=center;verticalAlign=middle;resizable=0;points=[];" vertex="1" connectable="0" parent="7">
                    <mxGeometry x="-0.1775" y="1" relative="1" as="geometry">
                        <mxPoint y="1" as="offset"/>
                    </mxGeometry>
                </mxCell>
            </root>
        </mxGraphModel>
    </diagram>
</mxfile>